<!-- Generator: Adobe Illustrator 22.0.1, SVG Export Plug-In  -->
<svg version="1.1"
	 xmlns="http://www.w3.org/2000/svg" xmlns:xlink="http://www.w3.org/1999/xlink" xmlns:a="http://ns.adobe.com/AdobeSVGViewerExtensions/3.0/"
	 x="0px" y="0px" width="200px" height="1249.28px" viewBox="0 0 200 1249.28" style="enable-background:new 0 0 200 1249.28;"
	 xml:space="preserve">
<style type="text/css">
	.st0{fill:#93D500;}
	.st1{fill:#FDFDFD;}
	.st2{fill:#FF0000;}
</style>
<defs>
</defs>
<path d="M105,0v17.673c0,2.761-2.238,5-5,5s-5-2.239-5-5V0H0v1249.28h95v-17.673c0-2.762,2.238-5,5-5s5,2.238,5,5v17.673h95V0H105z
	 M105,1196.922c0,2.762-2.238,5-5,5s-5-2.238-5-5v-34.684c0-2.762,2.238-5,5-5s5,2.238,5,5V1196.922z M105,1127.555
	c0,2.762-2.238,5-5,5s-5-2.238-5-5v-34.684c0-2.762,2.238-5,5-5s5,2.238,5,5V1127.555z M105,1058.188c0,2.762-2.238,5-5,5
	s-5-2.238-5-5v-34.685c0-2.762,2.238-5,5-5s5,2.238,5,5V1058.188z M105,988.82c0,2.762-2.238,5-5,5s-5-2.238-5-5v-34.684
	c0-2.762,2.238-5,5-5s5,2.238,5,5V988.82z M105,919.453c0,2.762-2.238,5-5,5s-5-2.238-5-5v-34.685c0-2.762,2.238-5,5-5s5,2.238,5,5
	V919.453z M105,850.084c0,2.762-2.238,5-5,5s-5-2.238-5-5v-34.684c0-2.762,2.238-5,5-5s5,2.238,5,5V850.084z M105,780.717
	c0,2.762-2.238,5-5,5s-5-2.238-5-5v-34.684c0-2.762,2.238-5,5-5s5,2.238,5,5V780.717z M105,711.349c0,2.762-2.238,5-5,5
	s-5-2.238-5-5v-34.684c0-2.762,2.238-5,5-5s5,2.238,5,5V711.349z M105,641.982c0,2.762-2.238,5-5,5s-5-2.238-5-5v-34.684
	c0-2.762,2.238-5,5-5s5,2.238,5,5V641.982z M105,572.614c0,2.762-2.238,5-5,5s-5-2.238-5-5V537.93c0-2.762,2.238-5,5-5s5,2.238,5,5
	V572.614z M105,503.246c0,2.761-2.238,5-5,5s-5-2.239-5-5v-34.684c0-2.762,2.238-5,5-5s5,2.238,5,5V503.246z M105,433.879
	c0,2.761-2.238,5-5,5s-5-2.239-5-5v-34.684c0-2.761,2.238-5,5-5s5,2.239,5,5V433.879z M105,364.511c0,2.761-2.238,5-5,5
	s-5-2.239-5-5v-34.684c0-2.761,2.238-5,5-5s5,2.239,5,5V364.511z M105,295.143c0,2.761-2.238,5-5,5s-5-2.239-5-5v-34.684
	c0-2.761,2.238-5,5-5s5,2.239,5,5V295.143z M105,225.776c0,2.761-2.238,5-5,5s-5-2.239-5-5v-34.684c0-2.762,2.238-5,5-5s5,2.238,5,5
	V225.776z M105,156.408c0,2.761-2.238,5-5,5s-5-2.239-5-5v-34.684c0-2.761,2.238-5,5-5s5,2.239,5,5V156.408z M105,87.04
	c0,2.762-2.238,5-5,5s-5-2.238-5-5V52.356c0-2.761,2.238-5,5-5s5,2.239,5,5V87.04z"/>
<g>
	<path class="st0" d="M124.456,143.212v27.204h-4.955c-1.15,0-2.091,0.941-2.091,2.091c0,1.15,0.941,2.092,2.091,2.092h4.955v56.781
		l0.712,6.846c0,3.394,2.777,6.171,6.171,6.171h42.284c3.394,0,6.17-2.777,6.17-6.171l0.712-6.846v-56.781h4.956
		c1.15,0,2.091-0.941,2.091-2.092c0-1.15-0.941-2.091-2.091-2.091h-4.956v-27.204c0-8.484-6.942-15.426-15.426-15.426h-25.196
		C131.398,127.786,124.456,134.728,124.456,143.212z"/>
	<g>
		<path class="st1" d="M163.146,134.906c0,1.067,0.865,1.933,1.933,1.933c3.514,0,6.374,2.86,6.374,6.374
			c0,1.067,0.865,1.933,1.933,1.933s1.933-0.865,1.933-1.933c0-5.646-4.593-10.239-10.239-10.239
			C164.011,132.973,163.146,133.838,163.146,134.906z"/>
		<path class="st1" d="M133.509,143.212c0-3.514,2.859-6.374,6.374-6.374c1.067,0,1.933-0.865,1.933-1.933s-0.865-1.933-1.933-1.933
			c-5.646,0-10.239,4.593-10.239,10.239c0,1.067,0.865,1.933,1.933,1.933S133.509,144.28,133.509,143.212z"/>
	</g>
	<g>
		<path d="M170.225,200.405h3.475v-25.003l-3.736,9.568c0.287,0.479,0.449,0.99,0.449,1.522L170.225,200.405z"/>
		<path d="M131.261,200.405h3.475l-0.188-13.913c0-0.755,0.322-1.466,0.879-2.103l-4.166-10.67V200.405z"/>
		<path d="M134.653,224.132c0.108-0.167,0.245-0.303,0.398-0.413l-0.273-20.221h-3.517v22.015l0.449,3.162L134.653,224.132z"/>
		<path d="M167.978,226.25h-30.994c-0.006,0-0.012-0.001-0.018-0.001l-3.447,5.32c0.2,0.042,0.406,0.072,0.624,0.072h36.676
			c0.429,0,0.826-0.093,1.168-0.245l-3.376-5.21C168.412,226.225,168.201,226.25,167.978,226.25z"/>
		<path d="M131.931,166.935l6.126,15.688c1.451-0.602,3.243-0.963,5.189-0.963h18.469c2.204,0,4.213,0.462,5.748,1.215l5.911-15.138
			c-1.131-3.265-5.164-5.691-9.966-5.691h-21.855C137.153,162.045,133.4,164.083,131.931,166.935z"/>
		<path d="M170.183,203.498l-0.27,19.954c0.416,0.067,0.804,0.298,1.051,0.68l2.405,3.712l0.331-2.33v-22.015H170.183z"/>
	</g>
	<g>
		<path class="st2" d="M128.738,239.975c0,1.067,0.865,1.933,1.933,1.933h8.959c1.067,0,1.933-0.865,1.933-1.933
			s-0.865-1.933-1.933-1.933h-8.959C129.603,238.042,128.738,238.907,128.738,239.975z"/>
		<path class="st2" d="M163.255,239.975c0,1.067,0.865,1.933,1.933,1.933h8.96c1.067,0,1.933-0.865,1.933-1.933
			s-0.865-1.933-1.933-1.933h-8.96C164.12,238.042,163.255,238.907,163.255,239.975z"/>
	</g>
</g>
<g>
	<path class="st0" d="M74.933,762.445v-27.204h4.955c1.15,0,2.091-0.941,2.091-2.091c0-1.15-0.941-2.091-2.091-2.091h-4.955v-56.781
		l-0.712-6.846c0-3.394-2.777-6.171-6.171-6.171H25.767c-3.394,0-6.17,2.777-6.17,6.171l-0.712,6.846v56.781h-4.956
		c-1.15,0-2.091,0.941-2.091,2.091c0,1.15,0.941,2.091,2.091,2.091h4.956v27.204c0,8.484,6.942,15.426,15.426,15.426h25.196
		C67.991,777.871,74.933,770.93,74.933,762.445z"/>
	<g>
		<path class="st1" d="M36.243,770.752c0-1.067-0.865-1.933-1.933-1.933c-3.514,0-6.374-2.86-6.374-6.374
			c0-1.068-0.865-1.933-1.933-1.933s-1.933,0.865-1.933,1.933c0,5.646,4.593,10.239,10.239,10.239
			C35.378,772.684,36.243,771.819,36.243,770.752z"/>
		<path class="st1" d="M65.88,762.445c0,3.514-2.859,6.374-6.374,6.374c-1.067,0-1.933,0.865-1.933,1.933
			c0,1.068,0.865,1.933,1.933,1.933c5.646,0,10.239-4.593,10.239-10.239c0-1.068-0.865-1.933-1.933-1.933
			C66.745,760.513,65.88,761.378,65.88,762.445z"/>
	</g>
	<g>
		<path d="M29.164,705.252h-3.475v25.003l3.736-9.568c-0.287-0.479-0.449-0.99-0.449-1.522L29.164,705.252z"/>
		<path d="M68.128,705.252h-3.475l0.188,13.913c0,0.755-0.322,1.466-0.879,2.103l4.166,10.67V705.252z"/>
		<path d="M64.736,681.526c-0.108,0.167-0.245,0.303-0.398,0.413l0.273,20.221h3.517v-22.015l-0.449-3.162L64.736,681.526z"/>
		<path d="M31.411,679.407h30.994c0.006,0,0.012,0.001,0.018,0.001l3.447-5.32c-0.2-0.042-0.406-0.072-0.624-0.072H28.57
			c-0.429,0-0.826,0.093-1.168,0.245l3.376,5.211C30.977,679.432,31.188,679.407,31.411,679.407z"/>
		<path d="M67.458,738.723l-6.126-15.688c-1.451,0.602-3.243,0.964-5.189,0.964H37.674c-2.204,0-4.213-0.462-5.748-1.215
			l-5.911,15.138c1.131,3.265,5.164,5.691,9.966,5.691h21.855C62.236,743.613,65.989,741.575,67.458,738.723z"/>
		<path d="M29.206,702.16l0.27-19.954c-0.416-0.067-0.804-0.298-1.051-0.68l-2.405-3.712l-0.331,2.331v22.015H29.206z"/>
	</g>
	<g>
		<path class="st2" d="M70.651,665.683c0-1.067-0.865-1.933-1.933-1.933H59.76c-1.067,0-1.933,0.865-1.933,1.933
			c0,1.068,0.865,1.933,1.933,1.933h8.959C69.786,667.616,70.651,666.75,70.651,665.683z"/>
		<path class="st2" d="M36.134,665.683c0-1.067-0.865-1.933-1.933-1.933h-8.96c-1.067,0-1.933,0.865-1.933,1.933
			c0,1.068,0.865,1.933,1.933,1.933h8.96C35.269,667.616,36.134,666.75,36.134,665.683z"/>
	</g>
</g>
</svg>