<svg id="Layer_1" data-name="Layer 1" xmlns="http://www.w3.org/2000/svg" xmlns:xlink="http://www.w3.org/1999/xlink" viewBox="0 0 300 301.48">
  <defs>
    <style>
      .cls-1 {
        fill: none;
      }

      .cls-2 {
        fill: #e0e1e3;
      }

      .cls-3 {
        clip-path: url(#clip-path);
      }

      .cls-4 {
        fill: #c79c80;
      }

      .cls-5 {
        fill: #fec49e;
      }

      .cls-6, .cls-8 {
        fill: #977763;
      }

      .cls-6 {
        opacity: 0.7;
      }

      .cls-7 {
        fill: #511f2e;
      }

      .cls-9 {
        fill: #a45b5d;
      }

      .cls-10 {
        fill: #b26260;
      }

      .cls-11 {
        fill: #fffdf1;
      }

      .cls-12 {
        fill: #353e43;
      }
    </style>
    <clipPath id="clip-path">
      <circle class="cls-1" cx="150" cy="150.002" r="150.001"/>
    </clipPath>
  </defs>
  <title>1d3445fd-3600-4969-acdb-a72cd9f390ee</title>
  <g>
    <circle class="cls-2" cx="150" cy="150.002" r="150.001"/>
    <g class="cls-3">
      <g>
        <g>
          <g>
            <g>
              <path class="cls-4" d="M149.917,157.451V257.529h-54.6c-.881-.375-1.343-.568-1.343-.568,0-32.654,12.373-46.932,22.06-53.113a30.265,30.265,0,0,1,11.366-4.574h.269a5.125,5.125,0,0,0,.738-.146c2.753-.772,4.617-4.812,5.885-10.576.234-1.027.428-2.062.579-3.168.3-1.828.571-3.781.763-5.8.118-1.223.227-2.442.345-3.706.5-6.135.654-12.813.654-19.149C136.637,156.733,143.99,157.451,149.917,157.451Z"/>
              <path class="cls-5" d="M206.047,256.962s-.495.192-1.3.568h-54.83V157.451h.117c5.926,0,13.321-.718,13.321-.718,0,6.306.16,12.9.655,19,.109,1.227.227,2.445.344,3.627.227,2.1.454,4.086.773,5.952v.042c.1.839.268,1.6.411,2.363,1.15,5.6,2.837,9.728,5.289,11.106a1.78,1.78,0,0,0,.571.221,3.154,3.154,0,0,0,1.233.234,27.449,27.449,0,0,1,8.109,2.758C190.628,206.983,206.047,220.531,206.047,256.962Z"/>
            </g>
            <path class="cls-6" d="M165.093,185.343v.033a17.6,17.6,0,0,1-15.118,8.206H149.9c-8.687-.042-13.741-6.335-15.042-8.168.3-1.836.571-3.777.756-5.793.118-1.219.235-2.45.352-3.71a59.37,59.37,0,0,0,13.783,1.8h.151a56.582,56.582,0,0,0,14.085-1.945c.117,1.227.243,2.45.352,3.618C164.565,181.487,164.791,183.47,165.093,185.343Z"/>
          </g>
          <path class="cls-7" d="M206.047,256.962s-.495,44.143-1.3,44.518H95.061c-.881-.375-1.351-44.518-1.351-44.518,0-32.654,13.531-49.82,25.367-54.929,8.906,8.961,19.4,22.947,22.227,25.589,4.784,4.482,7.722,12.12,10.744,10.2,3.089-1.965,19.877-25.579,28.633-35.793C190.577,206.983,206.047,220.531,206.047,256.962Z"/>
        </g>
        <g>
          <path class="cls-4" d="M149.858,49.94c-56.987-.113-57.306,45.521-54.779,75.274-3.9-6.978-15.462-4.382-14.513,6.791.907,10.713,17.242,15.563,17.023,14.386,4.65,24.24,31.511,37.7,52.269,39.624.143,0,.3,0,.445.013V49.944C150.152,49.944,150,49.94,149.858,49.94Z"/>
          <path class="cls-8" d="M83.427,127.289a5.647,5.647,0,0,1,8.352-1.515,4.382,4.382,0,0,1,1.351,4.97c-.4,1.432-2.006,1.54-1.6,3.728.419,2.462,1.628,2.621,2.3,3.175a5.1,5.1,0,0,1,1.955,2.021,5.186,5.186,0,0,1,.26,3.08c-.436,1.782-3.173.372-4.995-.409a35.673,35.673,0,0,1-5.985-4.6C82.638,135.14,81.522,130.156,83.427,127.289Z"/>
        </g>
        <g>
          <path class="cls-4" d="M150.134,49.94c56.987-.113,57.315,45.521,54.78,75.274,3.912-6.978,15.462-4.382,14.521,6.791-.906,10.713-17.241,15.563-17.006,14.386-4.667,24.24-31.527,37.7-52.3,39.624-.134,0-.293,0-.428.013V49.944C149.849,49.944,150,49.94,150.134,49.94Z"/>
          <path class="cls-8" d="M216.985,127.289a5.657,5.657,0,0,0-8.361-1.515,4.382,4.382,0,0,0-1.351,4.97c.412,1.432,2.006,1.54,1.62,3.728-.428,2.462-1.629,2.621-2.325,3.175a5.132,5.132,0,0,0-1.948,2.021,5.194,5.194,0,0,0-.26,3.08c.445,1.782,3.165.372,4.995-.409a35.321,35.321,0,0,0,5.985-4.6C217.766,135.14,218.882,130.156,216.985,127.289Z"/>
        </g>
        <g>
          <path class="cls-5" d="M149.564,62.849c-19.037,0-32.954,5.241-41.4,15.555C96.4,92.815,96.849,114.839,101.2,130.64c1.309,4.837,2,17.859,2.921,22.637,4.105,21.377,29.027,32.763,45.445,32.763.135,0,.294-.013.437-.013V62.861C149.849,62.861,149.706,62.849,149.564,62.849Z"/>
          <path class="cls-5" d="M190.863,78.425C182.485,68.174,168.727,62.949,150,62.861V186.028c18.736-.2,41.148-12.671,44.992-32.751.915-4.778,1.595-17.8,2.921-22.637C202.245,114.877,202.673,92.89,190.863,78.425Z"/>
        </g>
        <g>
          <path class="cls-9" d="M159.578,166.717s-4.306,4.582-9.6,4.582-9.351-4.487-9.351-4.487a62.044,62.044,0,0,1,9.351-.688A78.64,78.64,0,0,1,159.578,166.717Z"/>
          <path class="cls-10" d="M152.7,164.6a2.487,2.487,0,0,0-2.728,2.074,2.48,2.48,0,0,0-2.711-2.074c-1.5,0-6.883,2.112-6.883,2.112s5.246.556,6.748.556,2.821.592,2.846-.531c.025,1.132,1.108.7,2.593.7,1.511,0,7.01-.727,7.01-.727S154.2,164.6,152.7,164.6Z"/>
        </g>
        <polygon class="cls-11" points="208.793 153.044 208.691 152.877 206.568 149.2 204.235 145.181 201.91 149.2 199.777 152.877 199.676 153.044 199.777 153.228 201.91 156.888 204.235 160.92 206.568 156.888 208.691 153.228 208.793 153.044"/>
        <g>
          <path class="cls-12" d="M209.313,91.066c-3.895-5.509-1.948-13.255-2.586-20.033-.654-6.794-15.9-24.9-24.653-32.325s-27.886-6.469-37.614-6.469S129.234,36.777,125.02,40s-5.187,2.263-10.392,3.226c-5.187.977-8.428,3.239-17.829,20.046s-3.9,25.517-3.047,39.732-2.376,26.919-2.376,33.092c0,22.759,15.227,41.6,12.885,64.51a80.736,80.736,0,0,1-7.781,26.8s7.127-10.334,10.047-20.021,1.939-27.141-2.921-41.039c-4.063-11.611-3.366-25.037-1.326-36.3.109-.6.226-1.207.344-1.795.3-1.565.638-3.092.982-4.553.109-.438.226-.9.344-1.356.268-1.106.562-2.245.89-3.447a2.191,2.191,0,0,0,.37-.7,5.322,5.322,0,0,0,.2-1.319c.151-.5.3-1.009.454-1.532a52.576,52.576,0,0,0-.269,8.919,4.328,4.328,0,0,1,.017.472c.109,1.009.117,1.907.327,3l.32,2,.125.739c.109.5.218,1.014.336,1.523.319,1.435.654,2.875,1.057,4.177,1,3.644,2.384,7.037,3.593,10.251,1.175,3.217,2.383,6.247,3.3,9.177a64.065,64.065,0,0,1,1.98,8.318,37.815,37.815,0,0,1,.437,3.8,28.15,28.15,0,0,1,.176,3.485c.084,2.195-.109,4.123-.159,5.739-.345,3.2-.537,5.041-.537,5.041l.512-1.223c.3-.821.873-1.986,1.377-3.556a44.514,44.514,0,0,0,1.46-5.784,36.118,36.118,0,0,0,.7-7.8,52.136,52.136,0,0,0-1.754-13.034q-.6-2.449-1.352-4.917c-.117-.4-.235-.8-.36-1.194-.84-2.667-1.6-5.342-2.351-8.022-.185-.688-.377-1.364-.562-2.04-.488-1.724-.789-3.318-1.117-4.963l-.4-2.729c-.117-.722-.117-1.686-.2-2.5a43.227,43.227,0,0,1-.1-6.428c.067-1.29.176-2.579.352-3.857a75.491,75.491,0,0,1,1.864-10.016c1.628-6.507,3.71-12.546,5.439-17.8.805-2.354,1.52-4.537,2.149-6.528a12.174,12.174,0,0,0,3.1,7.3c12.029,12.454,22.337,14.019,30.966,14.837a2.443,2.443,0,0,0,.26.026c.092.009.176.012.26.021a49.17,49.17,0,0,1,10.325,1.591c17.561,5.609,20.507,25.149,31.067,26.456a9.849,9.849,0,0,0,2.476-.013,10.089,10.089,0,0,0,4.869-2.216c4.306-3.33,7.5-9.683,8.73-14.753a21.516,21.516,0,0,0,.47-2.533c.05-.53.092-1.031.092-1.494A29.527,29.527,0,0,0,209.313,91.066Z"/>
          <path class="cls-12" d="M205.452,132.268h.058v-.021C205.494,132.251,205.468,132.263,205.452,132.268Z"/>
        </g>
      </g>
    </g>
  </g>
</svg>
